<?xml version="1.0" standalone="no"?>
<!DOCTYPE svg PUBLIC "-//W3C//DTD SVG 20010904//EN"
 "http://www.w3.org/TR/2001/REC-SVG-20010904/DTD/svg10.dtd">
<svg version="1.0" xmlns="http://www.w3.org/2000/svg"
 width="307.000000pt" height="307.000000pt" viewBox="0 0 307.000000 307.000000"
 preserveAspectRatio="xMidYMid meet">

<g transform="translate(0.000000,307.000000) scale(0.100000,-0.100000)"
fill="#000000" stroke="none">
<path d="M1385 3064 c-260 -28 -552 -144 -758 -301 -91 -69 -230 -206 -303
-299 -149 -190 -253 -420 -300 -664 -27 -143 -25 -419 5 -560 132 -625 600
-1093 1220 -1221 134 -27 443 -27 580 1 144 29 241 63 386 135 428 212 738
616 836 1089 27 133 27 445 -1 580 -112 544 -500 985 -1026 1164 -146 50 -281
73 -449 77 -82 2 -168 1 -190 -1z m440 -293 c227 -57 423 -163 586 -318 186
-178 299 -369 367 -622 23 -87 25 -115 26 -291 1 -204 -3 -231 -51 -385 -146
-466 -567 -821 -1050 -886 -133 -18 -335 -6 -461 26 -239 61 -423 166 -598
340 -174 173 -291 387 -350 640 -28 119 -26 405 4 530 37 157 100 303 190 440
59 90 247 278 337 337 167 110 360 184 550 212 17 2 107 3 200 1 128 -3 190
-8 250 -24z"/>
<path d="M1495 2332 c-46 -43 -400 -380 -543 -517 l-62 -60 2 -221 3 -221 235
228 235 229 5 -508 5 -507 168 -3 167 -2 0 510 c0 280 3 510 7 510 3 0 110
-102 237 -227 l231 -228 3 220 2 220 -107 105 c-60 58 -205 199 -323 312
l-216 206 -49 -46z"/>
</g>
</svg>
