<?xml version="1.0" standalone="no"?>
<!DOCTYPE svg PUBLIC "-//W3C//DTD SVG 20010904//EN"
 "http://www.w3.org/TR/2001/REC-SVG-20010904/DTD/svg10.dtd">
<svg version="1.0" xmlns="http://www.w3.org/2000/svg"
 width="612.000000pt" height="408.000000pt" viewBox="0 0 612.000000 408.000000"
 preserveAspectRatio="xMidYMid meet">

<g transform="translate(0.000000,408.000000) scale(0.100000,-0.100000)"
fill="#000000" stroke="none">
<path d="M5100 3893 c0 -4 33 -80 74 -168 57 -123 71 -162 61 -170 -7 -6 -56
-28 -110 -50 l-97 -39 -39 22 c-21 12 -52 22 -70 22 l-31 0 37 -42 c34 -37 36
-42 21 -53 -23 -17 -20 -35 7 -32 21 2 22 -1 18 -52 l-3 -53 25 18 c14 11 33
37 42 60 l15 41 113 31 c61 17 115 28 118 24 4 -4 21 -68 38 -142 18 -74 37
-153 42 -175 l11 -40 19 24 c14 18 19 39 19 89 0 60 3 68 27 88 24 19 26 24
14 38 -7 9 -20 16 -27 16 -21 0 -17 12 13 35 l26 22 -21 21 c-12 12 -22 34
-22 50 0 25 7 30 99 66 132 51 163 70 159 99 -5 34 -56 33 -180 -3 -104 -31
-110 -31 -128 -15 -13 12 -19 29 -17 49 2 26 -2 31 -23 34 -33 5 -47 19 -33
33 18 18 4 39 -26 39 -19 0 -39 14 -76 54 -45 49 -95 80 -95 59z"/>
<path d="M4834 3366 c-10 -8 -16 -18 -12 -22 10 -9 58 12 58 26 0 14 -23 12
-46 -4z"/>
<path d="M4671 3301 c-23 -12 -30 -20 -22 -26 14 -8 91 23 91 37 0 13 -33 8
-69 -11z"/>
<path d="M4518 3229 c-36 -18 -50 -39 -28 -39 21 0 80 35 80 47 0 17 -8 16
-52 -8z"/>
<path d="M4348 3139 c-36 -18 -50 -39 -28 -39 21 0 80 35 80 47 0 17 -8 16
-52 -8z"/>
<path d="M1329 3125 c-33 -18 -53 -65 -45 -107 7 -39 88 -190 101 -190 15 0
105 175 105 204 0 84 -86 134 -161 93z m89 -57 c28 -28 7 -78 -33 -78 -27 0
-45 18 -45 45 0 27 18 45 45 45 12 0 26 -5 33 -12z"/>
<path d="M1993 3073 c-29 -11 -10 -23 37 -23 56 0 67 14 19 24 -35 7 -38 7
-56 -1z"/>
<path d="M4193 3044 c-41 -24 -55 -44 -32 -44 21 0 79 41 79 56 0 18 3 18 -47
-12z"/>
<path d="M1833 3047 c-33 -12 -42 -34 -12 -30 30 4 69 23 69 33 0 13 -16 12
-57 -3z"/>
<path d="M2170 3037 c0 -7 20 -20 45 -29 36 -14 45 -14 45 -4 0 8 -18 21 -40
30 -49 19 -50 19 -50 3z"/>
<path d="M1658 2969 c-36 -18 -50 -39 -27 -39 15 0 89 44 89 53 0 12 -23 7
-62 -14z"/>
<path d="M2336 2951 c-3 -4 12 -22 34 -40 26 -21 41 -27 46 -19 4 6 -7 23 -27
39 -37 31 -45 34 -53 20z"/>
<path d="M4033 2931 c-34 -28 -41 -41 -22 -41 14 0 79 50 79 61 0 17 -25 8
-57 -20z"/>
<path d="M2263 2923 c-13 -2 -23 -9 -23 -14 0 -13 100 -7 103 6 2 11 -44 16
-80 8z"/>
<path d="M2436 2921 c-4 -5 7 -12 23 -16 32 -7 81 3 81 16 0 12 -97 12 -104 0z"/>
<path d="M2628 2924 c-15 -15 5 -24 53 -24 27 0 49 5 49 10 0 6 -8 10 -19 10
-10 0 -31 3 -47 6 -16 3 -32 2 -36 -2z"/>
<path d="M2060 2895 c0 -17 8 -18 63 -9 53 9 46 24 -13 24 -38 0 -50 -4 -50
-15z"/>
<path d="M2812 2899 c5 -16 88 -31 101 -19 13 11 -5 19 -59 27 -38 5 -46 3
-42 -8z"/>
<path d="M1500 2861 c-19 -16 -32 -32 -28 -37 10 -9 89 46 82 57 -8 14 -18 11
-54 -20z"/>
<path d="M1898 2883 c-16 -3 -28 -11 -28 -19 0 -12 8 -14 38 -9 52 9 62 13 62
25 0 10 -20 11 -72 3z"/>
<path d="M3002 2869 c5 -14 85 -35 96 -25 11 11 -13 24 -57 31 -34 6 -42 4
-39 -6z"/>
<path d="M1702 2843 c-22 -4 -27 -24 -7 -25 31 0 85 14 85 22 0 10 -34 11 -78
3z"/>
<path d="M3190 2828 c0 -16 74 -43 90 -33 16 10 3 22 -27 28 -16 3 -36 9 -45
12 -12 5 -18 2 -18 -7z"/>
<path d="M3885 2810 c-16 -16 -26 -33 -22 -36 8 -8 77 43 77 57 0 18 -27 8
-55 -21z"/>
<path d="M2470 2822 c0 -5 15 -26 33 -47 42 -49 57 -31 16 18 -29 35 -49 47
-49 29z"/>
<path d="M1533 2799 c-36 -10 -45 -29 -14 -29 27 0 81 21 81 31 0 11 -24 10
-67 -2z"/>
<path d="M1362 2768 c-30 -30 3 -77 40 -57 22 12 24 55 2 63 -22 8 -28 8 -42
-6z"/>
<path d="M3370 2767 c0 -11 59 -37 84 -37 20 0 0 20 -34 34 -49 19 -50 19 -50
3z"/>
<path d="M3752 2687 c-35 -36 -39 -47 -19 -47 16 0 67 52 67 68 0 20 -14 14
-48 -21z"/>
<path d="M3545 2700 c-7 -12 82 -57 92 -47 8 9 -23 33 -59 46 -17 6 -30 6 -33
1z"/>
<path d="M2587 2672 c-7 -9 42 -92 54 -92 16 0 10 24 -16 63 -27 39 -31 42
-38 29z"/>
<path d="M3710 2611 c0 -10 65 -51 81 -51 19 0 8 19 -25 39 -36 22 -56 27 -56
12z"/>
<path d="M3626 2549 c-26 -31 -33 -49 -18 -49 12 0 62 54 62 68 0 21 -17 13
-44 -19z"/>
<path d="M3870 2511 c0 -9 71 -61 83 -61 19 0 2 28 -29 48 -37 23 -54 28 -54
13z"/>
<path d="M2680 2500 c0 -6 9 -29 21 -52 14 -27 24 -37 31 -30 6 6 3 23 -11 51
-20 38 -41 54 -41 31z"/>
<path d="M3512 2400 c-23 -30 -28 -50 -14 -50 10 0 52 56 52 70 0 18 -16 10
-38 -20z"/>
<path d="M4026 2401 c-7 -11 72 -76 81 -67 7 7 -33 53 -59 67 -10 5 -19 5 -22
0z"/>
<path d="M2760 2320 c0 -21 29 -80 39 -80 15 0 14 11 -4 54 -14 34 -35 49 -35
26z"/>
<path d="M3422 2268 c-5 -7 -17 -28 -26 -45 -13 -26 -14 -33 -3 -33 12 0 57
67 57 84 0 10 -17 7 -28 -6z"/>
<path d="M4170 2271 c0 -12 58 -71 70 -71 18 0 11 16 -23 48 -33 32 -47 39
-47 23z"/>
<path d="M2828 2154 c-9 -8 22 -94 33 -94 13 0 11 26 -5 65 -15 36 -18 39 -28
29z"/>
<path d="M4300 2139 c0 -13 52 -79 63 -79 16 0 6 27 -22 58 -31 34 -41 39 -41
21z"/>
<path d="M3320 2088 c-21 -35 -27 -74 -10 -63 6 4 19 24 30 45 25 49 8 64 -20
18z"/>
<path d="M4420 1989 c0 -13 52 -79 63 -79 14 0 7 22 -19 56 -26 34 -44 43 -44
23z"/>
<path d="M2886 1943 c13 -54 25 -76 34 -67 13 13 -9 94 -26 94 -11 0 -13 -7
-8 -27z"/>
<path d="M3237 1908 c-11 -27 -14 -45 -7 -52 10 -10 51 72 43 87 -9 15 -19 6
-36 -35z"/>
<path d="M4691 1873 c-44 -22 -67 -74 -53 -121 12 -37 92 -182 101 -182 7 0
31 41 72 121 47 92 34 155 -37 185 -41 17 -41 17 -83 -3z m84 -67 c30 -45 -16
-91 -61 -61 -28 18 -31 41 -7 67 22 25 49 23 68 -6z"/>
<path d="M4535 1840 c-9 -15 45 -94 57 -82 6 6 1 23 -17 51 -30 45 -31 45 -40
31z"/>
<path d="M2997 1833 c-33 -9 -6 -23 44 -23 37 0 49 4 49 15 0 15 -50 19 -93 8z"/>
<path d="M3187 1833 c-17 -16 -4 -23 42 -23 57 0 75 15 30 24 -41 8 -64 8 -72
-1z"/>
<path d="M2813 1823 c-42 -8 -24 -23 27 -23 38 0 50 4 50 15 0 15 -27 18 -77
8z"/>
<path d="M3380 1817 c0 -11 13 -16 50 -19 35 -2 50 1 50 10 0 6 -12 12 -27 12
-16 0 -38 3 -50 6 -17 5 -23 2 -23 -9z"/>
<path d="M2632 1801 c-32 -6 -46 -27 -17 -25 8 0 31 1 50 2 24 1 35 7 35 17 0
16 -12 17 -68 6z"/>
<path d="M3570 1796 c0 -14 97 -33 108 -21 11 11 -14 22 -60 29 -37 4 -48 2
-48 -8z"/>
<path d="M2930 1784 c0 -29 25 -94 36 -94 15 0 12 25 -7 78 -7 19 -29 32 -29
16z"/>
<path d="M3765 1771 c-8 -14 7 -20 59 -27 49 -7 67 11 21 21 -14 3 -36 7 -49
10 -14 3 -27 1 -31 -4z"/>
<path d="M2421 1759 c-15 -6 -21 -13 -15 -19 10 -10 82 5 99 21 12 12 -53 11
-84 -2z"/>
<path d="M3172 1731 c-15 -47 -15 -51 -2 -51 10 0 19 17 34 68 5 16 3 22 -7
22 -7 0 -19 -17 -25 -39z"/>
<path d="M3960 1726 c0 -13 41 -26 81 -26 35 0 19 18 -25 29 -56 14 -56 14
-56 -3z"/>
<path d="M2251 1716 c-48 -17 -55 -41 -10 -31 55 12 81 24 74 35 -8 13 -21 12
-64 -4z"/>
<path d="M4150 1681 c0 -14 12 -19 58 -27 53 -8 55 9 3 24 -47 14 -61 15 -61
3z"/>
<path d="M4630 1674 c0 -5 35 -67 46 -83 2 -1 7 0 13 4 14 8 -29 85 -46 85 -7
0 -13 -3 -13 -6z"/>
<path d="M2068 1653 c-38 -15 -51 -33 -24 -33 23 0 86 30 86 40 0 14 -18 12
-62 -7z"/>
<path d="M4340 1625 c0 -13 56 -35 88 -35 9 0 19 20 10 20 -2 0 -24 7 -50 15
-41 12 -48 12 -48 0z"/>
<path d="M1893 1580 c-39 -18 -58 -40 -33 -40 22 0 90 41 85 50 -4 6 -7 10 -8
9 -1 0 -21 -9 -44 -19z"/>
<path d="M2984 1553 c7 -51 12 -61 25 -47 11 12 -7 94 -21 94 -7 0 -9 -16 -4
-47z"/>
<path d="M3119 1550 c-12 -40 -7 -62 10 -44 5 5 13 26 16 47 10 51 -11 49 -26
-3z"/>
<path d="M4520 1561 c0 -9 71 -41 90 -41 23 0 7 22 -25 36 -39 16 -65 18 -65
5z"/>
<path d="M4705 1500 c-14 -44 44 -69 65 -29 9 15 8 24 -1 35 -18 21 -57 18
-64 -6z"/>
<path d="M1718 1489 c-21 -11 -38 -26 -38 -35 0 -13 7 -11 42 8 23 13 43 29
46 36 5 17 -6 15 -50 -9z"/>
<path d="M2995 1448 c-34 -31 -46 -75 -30 -120 16 -49 84 -168 95 -168 11 0
79 120 97 172 24 71 -23 138 -99 138 -24 0 -46 -8 -63 -22z m105 -58 c27 -50
-32 -92 -73 -52 -18 18 -19 25 -9 47 15 32 66 35 82 5z"/>
<path d="M1547 1385 c-36 -25 -48 -45 -27 -45 18 0 80 45 80 58 0 18 -11 15
-53 -13z"/>
<path d="M1386 1267 c-22 -19 -35 -36 -29 -40 13 -8 83 42 83 60 0 20 -11 16
-54 -20z"/>
<path d="M1236 1141 c-42 -44 -28 -61 17 -21 20 17 37 36 37 41 0 18 -27 8
-54 -20z"/>
<path d="M3030 1090 c-9 -16 -8 -25 1 -36 26 -32 84 0 62 34 -16 26 -50 27
-63 2z"/>
<path d="M1102 1007 c-33 -34 -39 -47 -22 -47 11 0 69 60 70 73 0 15 -17 6
-48 -26z"/>
<path d="M967 862 c-26 -27 -35 -52 -19 -52 8 0 34 26 61 63 23 30 -11 21 -42
-11z"/>
<path d="M846 707 c-26 -34 -33 -57 -17 -57 9 0 61 71 61 83 0 17 -21 4 -44
-26z"/>
<path d="M520 613 c-8 -3 -27 -17 -42 -31 -48 -45 -37 -105 48 -249 10 -18 22
-33 26 -33 16 0 108 178 108 210 0 67 -79 125 -140 103z m64 -69 c23 -23 20
-51 -8 -69 -33 -22 -66 -5 -66 33 0 49 42 69 74 36z"/>
<path d="M731 546 c-40 -64 -19 -79 23 -16 30 46 31 50 12 50 -8 0 -24 -15
-35 -34z"/>
<path d="M626 378 c-23 -39 -26 -58 -7 -58 9 0 51 73 51 89 0 23 -20 9 -44
-31z"/>
<path d="M535 247 c-25 -19 -16 -61 14 -65 40 -6 58 48 22 67 -13 7 -23 6 -36
-2z"/>
</g>
</svg>
