<?xml version="1.0" standalone="no"?>
<!DOCTYPE svg PUBLIC "-//W3C//DTD SVG 20010904//EN"
 "http://www.w3.org/TR/2001/REC-SVG-20010904/DTD/svg10.dtd">
<svg version="1.0" xmlns="http://www.w3.org/2000/svg"
 width="512.000000pt" height="512.000000pt" viewBox="0 0 512.000000 512.000000"
 preserveAspectRatio="xMidYMid meet">

<g transform="translate(0.000000,512.000000) scale(0.100000,-0.100000)"
fill="#000000" stroke="none">
<path d="M2520 4946 c-49 -27 -92 -103 -139 -246 -69 -212 -88 -353 -96 -700
-6 -267 -32 -806 -43 -899 l-7 -55 -935 -671 c-794 -569 -938 -676 -953 -708
-21 -42 -38 -245 -20 -234 6 4 294 114 640 246 l631 240 327 67 c264 53 332
64 351 55 24 -11 24 -11 24 -188 1 -320 20 -633 52 -831 l12 -73 -29 -24 c-17
-13 -146 -97 -287 -187 -210 -132 -259 -168 -268 -192 -5 -16 -13 -74 -17
-128 l-6 -99 24 6 c333 82 655 152 660 143 4 -6 31 -76 60 -154 29 -79 56
-140 60 -136 4 4 31 70 59 147 29 77 55 143 59 147 5 5 219 -42 659 -147 l24
-6 -7 98 c-11 159 9 136 -283 320 -141 90 -270 173 -286 186 l-29 24 16 119
c25 179 35 338 43 667 7 296 7 299 29 309 18 8 98 -5 350 -56 l327 -67 631
-240 c346 -132 634 -242 640 -246 7 -4 8 26 4 90 -10 173 83 92 -963 841 -505
363 -927 666 -936 675 -13 12 -19 47 -27 151 -14 181 -30 521 -41 880 -8 252
-13 312 -34 414 -50 238 -120 409 -186 454 -38 25 -55 27 -90 8z"/>
</g>
</svg>
